<?xml version="1.0" encoding="UTF-8"?>
<svg width="25px" height="20px" viewBox="0 0 25 20" version="1.1" xmlns="http://www.w3.org/2000/svg" xmlns:xlink="http://www.w3.org/1999/xlink">
    <title>Shape</title>
    <g id="Pages" stroke="none" stroke-width="1" fill="none" fill-rule="evenodd">
        <g id="index" transform="translate(-62.000000, -23.000000)" fill="#000000" fill-rule="nonzero">
            <g id="₪-copy" transform="translate(62.000000, 23.000000)">
                <path d="M3.64946834,3.63310301 L3.64946834,19.5892987 L0,19.5892987 L0,0 L9.39369877,0 C12.6776748,0 14.8706288,0.480049647 15.972561,1.44014894 C16.6271741,1.99657012 17.0581278,2.68936904 17.265422,3.51854571 C17.4727161,4.34772237 17.5763632,5.79878153 17.5763632,7.87172319 L17.5763632,13.1249938 L13.9432602,13.1249938 L13.9432602,8.88637358 C13.9432602,6.35520271 13.7277834,4.8468649 13.2968297,4.36136014 C12.865876,3.87585539 11.5321017,3.63310301 9.2955068,3.63310301 L3.64946834,3.63310301 Z M6.9716301,19.5892987 L6.9716301,6.4643049 L10.6047331,6.4643049 L10.6047331,15.9561956 L16.2671369,15.9561956 C18.5037318,15.9561956 19.8347786,15.7161708 20.2602771,15.2361212 C20.6857757,14.7560715 20.898525,13.2450062 20.898525,10.7029251 L20.898525,0 L24.531628,0 L24.531628,11.7175755 C24.531628,13.7796069 24.4307084,15.2279385 24.2288694,16.0625703 C24.0270303,16.8972021 23.5988042,17.5981836 22.9441911,18.165515 C21.8422589,19.1147041 19.6493049,19.5892987 16.3653289,19.5892987 L6.9716301,19.5892987 Z" id="Shape"></path>
            </g>
        </g>
    </g>
</svg>